REM DIRINDEX 1\8,1\2\11,1\3\12,1\3\14,1\5\15,1\5\16,1\6\17,1\6\18,1\4\19,1\4\20,1\4\21,1\4\22,1\7\23,1\7\24,1\7\25,1\2\9\26,1\2\9\27,1\2\10\28,1\2\10\29,1\2\10\30,1\2\10\31,1\2\10\32,1\3\13\33,1\3\13\34,1\3\13\35
REM DIRNAME folder01,folder02,folder03,folder04,folder05,folder06,folder07,folder08,folder09,folder10,folder11,folder12,folder13,folder14,folder15,folder16,folder17,folder18,folder19,folder20,folder21,folder22,folder23,folder24,folder25,folder26,folder27,folder28,folder29,folder30,folder31,folder32,folder33,folder34,folder35
TITLE ""
FILE "1-31 031_UNIT3_WARM-UP-40.mp3" MP3
  TRACK 01 AUDIO
    TITLE "11:cjc123_1208"
    INDEX 01 00:00:00
  TRACK 02 AUDIO
    TITLE "0:"
    INDEX 01 00:02:69
  TRACK 03 AUDIO
    TITLE "26:cjc123_1209"
    INDEX 01 00:03:51
  TRACK 04 AUDIO
    TITLE "0:"
    INDEX 01 00:04:46
  TRACK 05 AUDIO
    TITLE "27:cjc123_1210"
    INDEX 01 00:05:01
  TRACK 06 AUDIO
    TITLE "0:"
    INDEX 01 00:06:16
  TRACK 07 AUDIO
    TITLE "26:cjc123_1211"
    INDEX 01 00:06:61
  TRACK 08 AUDIO
    TITLE "0:"
    INDEX 01 00:07:64
  TRACK 09 AUDIO
    TITLE "27:cjc123_1212"
    INDEX 01 00:08:23
  TRACK 10 AUDIO
    TITLE "0:"
    INDEX 01 00:09:47
  TRACK 11 AUDIO
    TITLE "26:cjc123_1213"
    INDEX 01 00:10:18
  TRACK 12 AUDIO
    TITLE "0:"
    INDEX 01 00:11:25
  TRACK 13 AUDIO
    TITLE "27:cjc123_1214"
    INDEX 01 00:11:39
  TRACK 14 AUDIO
    TITLE "0:"
    INDEX 01 00:12:46
  TRACK 15 AUDIO
    TITLE "26:cjc123_1215"
    INDEX 01 00:13:18
  TRACK 16 AUDIO
    TITLE "0:"
    INDEX 01 00:14:37
  TRACK 17 AUDIO
    TITLE "27:cjc123_1216"
    INDEX 01 00:14:54
  TRACK 18 AUDIO
    TITLE "0:"
    INDEX 01 00:16:04
  TRACK 19 AUDIO
    TITLE "26:cjc123_1217"
    INDEX 01 00:16:51
  TRACK 20 AUDIO
    TITLE "0:"
    INDEX 01 00:17:57
  TRACK 21 AUDIO
    TITLE "27:cjc123_1218"
    INDEX 01 00:17:74
  TRACK 22 AUDIO
    TITLE "0:"
    INDEX 01 00:19:36
  TRACK 23 AUDIO
    TITLE "26:cjc123_1219"
    INDEX 01 00:20:08
  TRACK 24 AUDIO
    TITLE "0:"
    INDEX 01 00:21:17
  TRACK 25 AUDIO
    TITLE "27:cjc123_1220"
    INDEX 01 00:21:49
  TRACK 26 AUDIO
    TITLE "0:"
    INDEX 01 00:23:14
  TRACK 27 AUDIO
    TITLE "26:cjc123_1221"
    INDEX 01 00:23:65
  TRACK 28 AUDIO
    TITLE "0:"
    INDEX 01 00:24:72
  TRACK 29 AUDIO
    TITLE "27:cjc123_1222"
    INDEX 01 00:25:15
  TRACK 30 AUDIO
    TITLE "0:"
    INDEX 01 00:26:60
  TRACK 31 AUDIO
    TITLE "26:cjc123_1223"
    INDEX 01 00:27:38
  TRACK 32 AUDIO
    TITLE "0:"
    INDEX 01 00:28:49
  TRACK 33 AUDIO
    TITLE "27:cjc123_1224"
    INDEX 01 00:29:05
  TRACK 34 AUDIO
    TITLE "0:"
    INDEX 01 00:30:36
  TRACK 35 AUDIO
    TITLE "26:cjc123_1225"
    INDEX 01 00:30:57
  TRACK 36 AUDIO
    TITLE "0:"
    INDEX 01 00:32:11
  TRACK 37 AUDIO
    TITLE "27:cjc123_1226"
    INDEX 01 00:32:27
  TRACK 38 AUDIO
    TITLE "0:"
    INDEX 01 00:33:71
  TRACK 39 AUDIO
    TITLE "26:cjc123_1227"
    INDEX 01 00:34:40
  TRACK 40 AUDIO
    TITLE "0:"
    INDEX 01 00:36:03
  TRACK 41 AUDIO
    TITLE "27:cjc123_1228"
    INDEX 01 00:36:25
  TRACK 42 AUDIO
    TITLE "0:"
    INDEX 01 00:37:73
  TRACK 43 AUDIO
    TITLE "26:cjc123_1229"
    INDEX 01 00:38:43
  TRACK 44 AUDIO
    TITLE "0:"
    INDEX 01 00:39:37
  TRACK 45 AUDIO
    TITLE "27:cjc123_1230"
    INDEX 01 00:39:52
  TRACK 46 AUDIO
    TITLE "0:"
    INDEX 01 00:40:30
  TRACK 47 AUDIO
    TITLE "26:cjc123_1231"
    INDEX 01 00:41:08
  TRACK 48 AUDIO
    TITLE "0:"
    INDEX 01 00:42:12
  TRACK 49 AUDIO
    TITLE "27:cjc123_1232"
    INDEX 01 00:42:37
  TRACK 50 AUDIO
    TITLE "0:"
    INDEX 01 00:43:70
  TRACK 51 AUDIO
    TITLE "26:cjc123_1233"
    INDEX 01 00:44:40
  TRACK 52 AUDIO
    TITLE "0:"
    INDEX 01 00:45:37
  TRACK 53 AUDIO
    TITLE "27:cjc123_1234"
    INDEX 01 00:45:57
  TRACK 54 AUDIO
    TITLE "0:"
    INDEX 01 00:46:72
  TRACK 55 AUDIO
    TITLE "26:cjc123_1235"
    INDEX 01 00:47:38
  TRACK 56 AUDIO
    TITLE "0:"
    INDEX 01 00:48:34
  TRACK 57 AUDIO
    TITLE "27:cjc123_1236"
    INDEX 01 00:48:55
  TRACK 58 AUDIO
    TITLE "0:"
    INDEX 01 00:50:13
  TRACK 59 AUDIO
    TITLE "26:cjc123_1237"
    INDEX 01 00:50:62
  TRACK 60 AUDIO
    TITLE "0:"
    INDEX 01 00:52:00
  TRACK 61 AUDIO
    TITLE "27:cjc123_1238"
    INDEX 01 00:52:14
  TRACK 62 AUDIO
    TITLE "0:"
    INDEX 01 00:53:33
  TRACK 63 AUDIO
    TITLE "26:cjc123_1239"
    INDEX 01 00:54:07
  TRACK 64 AUDIO
    TITLE "0:"
    INDEX 01 00:55:34
  TRACK 65 AUDIO
    TITLE "27:cjc123_1240"
    INDEX 01 00:55:51
  TRACK 66 AUDIO
    TITLE "0:"
    INDEX 01 00:57:15
  TRACK 67 AUDIO
    TITLE "26:cjc123_1241"
    INDEX 01 00:57:64
  TRACK 68 AUDIO
    TITLE "0:"
    INDEX 01 00:59:00
  TRACK 69 AUDIO
    TITLE "27:cjc123_1242"
    INDEX 01 00:59:22
  TRACK 70 AUDIO
    TITLE "0:"
    INDEX 01 01:00:45
  TRACK 71 AUDIO
    TITLE "26:cjc123_1243"
    INDEX 01 01:01:21
  TRACK 72 AUDIO
    TITLE "0:"
    INDEX 01 01:02:40
  TRACK 73 AUDIO
    TITLE "27:cjc123_1244"
    INDEX 01 01:02:54
  TRACK 74 AUDIO
    TITLE "0:"
    INDEX 01 01:04:21
  TRACK 75 AUDIO
    TITLE "26:cjc123_1245"
    INDEX 01 01:04:74
  TRACK 76 AUDIO
    TITLE "0:"
    INDEX 01 01:06:22
  TRACK 77 AUDIO
    TITLE "27:cjc123_1246"
    INDEX 01 01:06:47
  TRACK 78 AUDIO
    TITLE "0:"
    INDEX 01 01:08:35
  TRACK 79 AUDIO
    TITLE "26:cjc123_1247"
    INDEX 01 01:09:07
  TRACK 80 AUDIO
    TITLE "0:"
    INDEX 01 01:10:12
  TRACK 81 AUDIO
    TITLE "27:cjc123_1248"
    INDEX 01 01:10:37
  TRACK 82 AUDIO
    TITLE "0:"
    INDEX 01 01:11:70
  TRACK 83 AUDIO
    TITLE "26:cjc123_1249"
    INDEX 01 01:12:56
  TRACK 84 AUDIO
    TITLE "0:"
    INDEX 01 01:13:67
  TRACK 85 AUDIO
    TITLE "27:cjc123_1250"
    INDEX 01 01:14:17
  TRACK 86 AUDIO
    TITLE "0:"
    INDEX 01 01:15:50
  TRACK 87 AUDIO
    TITLE "26:cjc123_1251"
    INDEX 01 01:16:26
  TRACK 88 AUDIO
    TITLE "0:"
    INDEX 01 01:17:24
  TRACK 89 AUDIO
    TITLE "27:cjc123_1252"
    INDEX 01 01:17:41
  TRACK 90 AUDIO
    TITLE "0:"
    INDEX 01 01:19:13
  TRACK 91 AUDIO
    TITLE "26:cjc123_1253"
    INDEX 01 01:19:58
  TRACK 92 AUDIO
    TITLE "0:"
    INDEX 01 01:20:73
  TRACK 93 AUDIO
    TITLE "27:cjc123_1254"
    INDEX 01 01:21:20
  TRACK 94 AUDIO
    TITLE "0:"
    INDEX 01 01:22:21
  TRACK 95 AUDIO
    TITLE "26:cjc123_1255"
    INDEX 01 01:22:66
  TRACK 96 AUDIO
    TITLE "0:"
    INDEX 01 01:24:10
  TRACK 97 AUDIO
    TITLE "27:cjc123_1256"
    INDEX 01 01:24:24
  TRACK 98 AUDIO
    TITLE "0:"
    INDEX 01 01:25:08
  TRACK 99 AUDIO
    TITLE "26:cjc123_1257"
    INDEX 01 01:25:51
  TRACK 100 AUDIO
    TITLE "0:"
    INDEX 01 01:26:66
  TRACK 101 AUDIO
    TITLE "27:cjc123_1258"
    INDEX 01 01:27:18
  TRACK 102 AUDIO
    TITLE "0:"
    INDEX 01 01:28:16
  TRACK 103 AUDIO
    TITLE "26:cjc123_1259"
    INDEX 01 01:29:07
  TRACK 104 AUDIO
    TITLE "0:"
    INDEX 01 01:30:07
  TRACK 105 AUDIO
    TITLE "27:cjc123_1260"
    INDEX 01 01:30:30
  TRACK 106 AUDIO
    TITLE "0:"
    INDEX 01 01:31:24
  TRACK 107 AUDIO
    TITLE "26:cjc123_1261"
    INDEX 01 01:31:73
  TRACK 108 AUDIO
    TITLE "0:"
    INDEX 01 01:33:13
  TRACK 109 AUDIO
    TITLE "27:cjc123_1262"
    INDEX 01 01:33:38
  TRACK 110 AUDIO
    TITLE "0:"
    INDEX 01 01:34:40
  TRACK 111 AUDIO
    TITLE "26:cjc123_1263"
    INDEX 01 01:35:16
  TRACK 112 AUDIO
    TITLE "0:"
    INDEX 01 01:36:13
  TRACK 113 AUDIO
    TITLE "27:cjc123_1264"
    INDEX 01 01:36:39
  TRACK 114 AUDIO
    TITLE "0:"
    INDEX 01 01:37:42
  TRACK 115 AUDIO
    TITLE "26:cjc123_1265"
    INDEX 01 01:38:16
  TRACK 116 AUDIO
    TITLE "0:"
    INDEX 01 01:39:23
  TRACK 117 AUDIO
    TITLE "27:cjc123_1266"
    INDEX 01 01:39:39
  TRACK 118 AUDIO
    TITLE "0:"
    INDEX 01 01:40:31
  TRACK 119 AUDIO
    TITLE "26:cjc123_1267"
    INDEX 01 01:41:03
  TRACK 120 AUDIO
    TITLE "0:"
    INDEX 01 01:42:18
  TRACK 121 AUDIO
    TITLE "27:cjc123_1268"
    INDEX 01 01:42:35
  TRACK 122 AUDIO
    TITLE "0:"
    INDEX 01 01:43:45
  TRACK 123 AUDIO
    TITLE "26:cjc123_1269"
    INDEX 01 01:44:17
  TRACK 124 AUDIO
    TITLE "0:"
    INDEX 01 01:45:28
  TRACK 125 AUDIO
    TITLE "27:cjc123_1270"
    INDEX 01 01:45:49
  TRACK 126 AUDIO
    TITLE "0:"
    INDEX 01 01:46:37
  TRACK 127 AUDIO
    TITLE "26:cjc123_1271"
    INDEX 01 01:47:07
  TRACK 128 AUDIO
    TITLE "0:"
    INDEX 01 01:48:11
  TRACK 129 AUDIO
    TITLE "27:cjc123_1272"
    INDEX 01 01:48:36
  TRACK 130 AUDIO
    TITLE "0:"
    INDEX 01 01:49:55
  TRACK 131 AUDIO
    TITLE "26:cjc123_1273"
    INDEX 01 01:50:25
  TRACK 132 AUDIO
    TITLE "0:"
    INDEX 01 01:51:64
  TRACK 133 AUDIO
    TITLE "27:cjc123_1274"
    INDEX 01 01:52:10
  TRACK 134 AUDIO
    TITLE "0:"
    INDEX 01 01:53:29
  TRACK 135 AUDIO
    TITLE "26:cjc123_1275"
    INDEX 01 01:53:74
  TRACK 136 AUDIO
    TITLE "0:"
    INDEX 01 01:55:01
  TRACK 137 AUDIO
    TITLE "27:cjc123_1276"
    INDEX 01 01:55:26
  TRACK 138 AUDIO
    TITLE "0:"
    INDEX 01 01:56:63
  TRACK 139 AUDIO
    TITLE "26:cjc123_1277"
    INDEX 01 01:57:35
  TRACK 140 AUDIO
    TITLE "0:"
    INDEX 01 01:58:27
  TRACK 141 AUDIO
    TITLE "27:cjc123_1278"
    INDEX 01 01:58:56
  TRACK 142 AUDIO
    TITLE "0:"
    INDEX 01 02:00:16
  TRACK 143 AUDIO
    TITLE "26:cjc123_1279"
    INDEX 01 02:00:63
  TRACK 144 AUDIO
    TITLE "0:"
    INDEX 01 02:02:01
  TRACK 145 AUDIO
    TITLE "27:cjc123_1280"
    INDEX 01 02:02:22
  TRACK 146 AUDIO
    TITLE "0:"
    INDEX 01 02:03:45
  TRACK 147 AUDIO
    TITLE "26:cjc123_1281"
    INDEX 01 02:04:15
  TRACK 148 AUDIO
    TITLE "0:"
    INDEX 01 02:05:07
  TRACK 149 AUDIO
    TITLE "27:cjc123_1282"
    INDEX 01 02:05:27
  TRACK 150 AUDIO
    TITLE "0:"
    INDEX 01 02:06:28
  TRACK 151 AUDIO
    TITLE "26:cjc123_1283"
    INDEX 01 02:07:02
  TRACK 152 AUDIO
    TITLE "0:"
    INDEX 01 02:08:05
  TRACK 153 AUDIO
    TITLE "27:cjc123_1284"
    INDEX 01 02:08:27
  TRACK 154 AUDIO
    TITLE "0:"
    INDEX 01 02:09:46
  TRACK 155 AUDIO
    TITLE "26:cjc123_1285"
    INDEX 01 02:10:28
  TRACK 156 AUDIO
    TITLE "0:"
    INDEX 01 02:11:45
  TRACK 157 AUDIO
    TITLE "27:cjc123_1286"
    INDEX 01 02:11:68
  TRACK 158 AUDIO
    TITLE "0:"
    INDEX 01 02:12:64
  TRACK 159 AUDIO
    TITLE "26:cjc123_1287"
    INDEX 01 02:13:38
  TRACK 160 AUDIO
    TITLE "0:"
    INDEX 01 02:14:49
  TRACK 161 AUDIO
    TITLE "27:cjc123_1288"
    INDEX 01 02:15:02
  TRACK 162 AUDIO
    TITLE "0:"
    INDEX 01 02:16:07
